<?xml version="1.0" encoding="UTF-8" standalone="no"?><!DOCTYPE svg PUBLIC "-//W3C//DTD SVG 1.1//EN" "http://www.w3.org/Graphics/SVG/1.1/DTD/svg11.dtd"><svg width="100%" height="100%" viewBox="0 0 140 45" version="1.1" xmlns="http://www.w3.org/2000/svg" xmlns:xlink="http://www.w3.org/1999/xlink" xml:space="preserve" xmlns:serif="http://www.serif.com/" style="fill-rule:evenodd;clip-rule:evenodd;stroke-linejoin:round;stroke-miterlimit:1.41421;"><path d="M71.121,8.272c0.87,0 1.565,-0.693 1.565,-1.555c0,-0.861 -0.695,-1.553 -1.565,-1.553l-1.392,0l0,3.108l1.392,0Zm-1.392,-6.455l0,2.541l1.392,0c0.696,0 1.28,-0.591 1.28,-1.282c0,-0.682 -0.584,-1.259 -1.28,-1.259l-1.392,0Zm3.78,4.9c0,1.305 -1.075,2.372 -2.388,2.372l-1.804,0c-0.217,0 -0.399,-0.182 -0.399,-0.408l0,-7.272c0,-0.217 0.182,-0.399 0.399,-0.399l1.804,0c1.097,0 2.091,0.909 2.091,2.066c0,0.681 -0.32,1.27 -0.811,1.645c0.674,0.443 1.108,1.146 1.108,1.996" style="fill:#383d45;fill-rule:nonzero;"/><path d="M80.89,4.414c0.73,0 1.313,-0.578 1.313,-1.292c0,-0.728 -0.583,-1.305 -1.313,-1.305l-1.543,0l0,2.597l1.543,0Zm2.111,4.211c0.059,0.238 -0.09,0.532 -0.377,0.532c-0.17,0 -0.318,-0.101 -0.398,-0.272l-1.2,-3.664l-1.679,0l0,3.54c0,0.215 -0.184,0.396 -0.41,0.396c-0.217,0 -0.401,-0.181 -0.401,-0.396l0,-7.352c0,-0.217 0.184,-0.398 0.401,-0.398l1.953,0c1.176,0 2.124,0.941 2.124,2.111c0,0.828 -0.481,1.542 -1.2,1.895l1.187,3.608Z" style="fill:#383d45;fill-rule:nonzero;"/><path d="M91.056,6.401l-1.107,-3.666l-1.122,3.666l2.229,0Zm1.541,2.234c0.057,0.24 -0.113,0.522 -0.4,0.522c-0.195,0 -0.319,-0.102 -0.376,-0.294l-0.515,-1.658l-2.717,0l-0.515,1.658c-0.057,0.17 -0.217,0.294 -0.387,0.294c-0.24,0 -0.481,-0.25 -0.389,-0.522l2.25,-7.409c0.057,-0.17 0.217,-0.283 0.401,-0.283c0.17,0 0.33,0.113 0.386,0.283l2.262,7.409Z" style="fill:#383d45;fill-rule:nonzero;"/><path d="M97.19,6.901l0,-3.701c0,-1.224 1.016,-2.257 2.271,-2.257c1.176,0 2.137,0.908 2.262,2.03c0.033,0.217 -0.137,0.409 -0.365,0.443c-0.217,0.035 -0.412,-0.136 -0.447,-0.362c-0.057,-0.727 -0.696,-1.305 -1.45,-1.305c-0.798,0 -1.46,0.657 -1.46,1.451l0,3.701c0,0.793 0.662,1.451 1.46,1.451c0.754,0 1.393,-0.58 1.45,-1.305c0.035,-0.228 0.23,-0.397 0.447,-0.363c0.228,0.033 0.398,0.227 0.365,0.443c-0.125,1.169 -1.131,2.03 -2.262,2.03c-1.255,0 -2.271,-1.011 -2.271,-2.256" style="fill:#383d45;fill-rule:nonzero;"/><path d="M111.056,1.352l0,7.396c0,0.227 -0.184,0.409 -0.41,0.409c-0.217,0 -0.401,-0.182 -0.401,-0.409l0,-3.607l-2.9,0l0,3.607c0,0.227 -0.182,0.409 -0.398,0.409c-0.231,0 -0.412,-0.182 -0.412,-0.409l0,-7.396c0,-0.229 0.181,-0.409 0.412,-0.409c0.216,0 0.398,0.18 0.398,0.409l0,2.982l2.9,0l0,-2.982c0,-0.229 0.184,-0.409 0.401,-0.409c0.226,0 0.41,0.18 0.41,0.409" style="fill:#383d45;fill-rule:nonzero;"/><path d="M120.114,8.272c0.23,0 0.412,0.182 0.412,0.409c0,0.226 -0.182,0.408 -0.412,0.408l-3.287,0c-0.217,0 -0.401,-0.182 -0.401,-0.408l0,-7.272c0,-0.217 0.184,-0.399 0.401,-0.399l3.254,0c0.228,0 0.412,0.182 0.412,0.399c0,0.225 -0.184,0.408 -0.412,0.408l-2.844,0l0,2.517l2.514,0c0.228,0 0.41,0.183 0.41,0.409c0,0.216 -0.182,0.398 -0.41,0.398l-2.514,0l0,3.131l2.877,0Z" style="fill:#383d45;fill-rule:nonzero;"/><path d="M127.622,4.414c0.73,0 1.312,-0.578 1.312,-1.292c0,-0.728 -0.582,-1.305 -1.312,-1.305l-1.543,0l0,2.597l1.543,0Zm2.111,4.211c0.059,0.238 -0.09,0.532 -0.377,0.532c-0.17,0 -0.318,-0.101 -0.398,-0.272l-1.201,-3.664l-1.678,0l0,3.54c0,0.215 -0.184,0.396 -0.41,0.396c-0.217,0 -0.401,-0.181 -0.401,-0.396l0,-7.352c0,-0.217 0.184,-0.398 0.401,-0.398l1.953,0c1.176,0 2.123,0.941 2.123,2.111c0,0.828 -0.48,1.542 -1.199,1.895l1.187,3.608Z" style="fill:#383d45;fill-rule:nonzero;"/><path d="M137.788,6.401l-1.107,-3.666l-1.122,3.666l2.229,0Zm1.541,2.234c0.057,0.24 -0.113,0.522 -0.4,0.522c-0.194,0 -0.319,-0.102 -0.375,-0.294l-0.516,-1.658l-2.717,0l-0.515,1.658c-0.057,0.17 -0.217,0.294 -0.387,0.294c-0.24,0 -0.481,-0.25 -0.389,-0.522l2.25,-7.409c0.057,-0.17 0.217,-0.283 0.401,-0.283c0.17,0 0.33,0.113 0.386,0.283l2.262,7.409Z" style="fill:#383d45;fill-rule:nonzero;"/><path d="M34.166,29.571c0.538,-0.773 1.151,-1.564 1.864,-2.325c0.184,-0.189 0.352,-0.383 0.551,-0.566l0.598,-0.545c0.203,-0.176 0.432,-0.34 0.648,-0.511c0.111,-0.082 0.219,-0.169 0.332,-0.249l0.358,-0.226c0.242,-0.146 0.468,-0.31 0.723,-0.434l0.765,-0.376c0.541,-0.233 1.139,-0.449 1.746,-0.569c1.218,-0.26 2.49,-0.233 3.648,0.022c0.155,0.034 0.289,0.048 0.303,0.029c0.012,-0.016 -0.105,-0.061 -0.251,-0.089c-1.165,-0.263 -2.446,-0.298 -3.675,-0.041c-0.613,0.119 -1.211,0.331 -1.763,0.564l-0.768,0.376c-0.261,0.119 -0.486,0.287 -0.732,0.431c-0.241,0.15 -0.479,0.302 -0.694,0.474c-0.217,0.17 -0.443,0.337 -0.654,0.514c-0.4,0.359 -0.809,0.724 -1.154,1.109c-0.375,0.379 -0.682,0.771 -1.009,1.16c-0.298,0.391 -0.604,0.783 -0.869,1.172c-0.073,0.104 -0.12,0.2 -0.114,0.226c0.012,0.015 0.078,-0.048 0.147,-0.146" style="fill:#383d45;fill-rule:nonzero;"/><path d="M9.507,26.175c-0.123,0.104 -0.264,0.183 -0.399,0.267c-0.175,0.104 -0.324,0.243 -0.48,0.374c-0.172,0.142 -0.349,0.275 -0.527,0.407c-0.139,0.104 -0.279,0.212 -0.409,0.325c-0.389,0.343 -0.767,0.697 -1.142,1.054c-1.066,1.017 -2.025,2.233 -2.843,3.532c0.166,-0.352 0.339,-0.7 0.511,-1.049c0.074,-0.147 0.185,-0.276 0.286,-0.407c0.11,-0.143 0.225,-0.284 0.34,-0.424c0.229,-0.281 0.466,-0.557 0.71,-0.823c0.137,-0.152 0.276,-0.303 0.418,-0.449c0.817,-0.859 1.706,-1.685 2.671,-2.374c0.276,-0.198 0.581,-0.362 0.905,-0.469c-0.014,0.013 -0.026,0.025 -0.041,0.036m-1.152,2.361c-0.091,0.099 -1.647,1.783 -2.305,2.665c-0.24,0.331 -1.328,1.623 -1.702,2.086c0.553,-0.814 1.191,-1.745 1.863,-2.55c0.743,-0.893 1.539,-1.734 2.431,-2.493c-0.1,0.093 -0.192,0.193 -0.287,0.292m47.466,8.07c-0.303,-2.293 -1.04,-4.671 -2.455,-6.819c-0.502,-0.758 -1.048,-1.459 -1.65,-2.073c-0.604,-0.617 -1.232,-1.188 -1.934,-1.685c-0.701,-0.5 -1.447,-0.953 -2.281,-1.316c-0.84,-0.358 -1.756,-0.636 -2.758,-0.76c-1.444,-0.175 -2.912,0.028 -4.257,0.582c-0.763,0.314 -1.485,0.733 -2.149,1.224c-0.842,0.624 -1.572,1.33 -2.225,2.067c-0.628,0.741 -1.194,1.506 -1.703,2.275c-0.213,0.292 -0.412,0.586 -0.603,0.891c-0.184,0.303 -0.367,0.606 -0.547,0.907c-0.362,0.572 -0.716,1.131 -1.071,1.648c-0.177,0.266 -0.359,0.516 -0.54,0.757c-0.182,0.261 -0.354,0.453 -0.526,0.669c-0.039,0.046 -0.094,0.121 -0.118,0.144l-0.079,0.083l-0.154,0.162c-0.109,0.105 -0.223,0.2 -0.349,0.275c-0.248,0.154 -0.554,0.221 -0.838,0.16c0.343,0.029 0.687,-0.114 0.923,-0.353c0.125,-0.114 0.225,-0.249 0.326,-0.38l0.037,-0.048l0.053,-0.071l0.139,-0.194c0.093,-0.133 0.185,-0.247 0.281,-0.391c0.795,-1.161 1.516,-2.498 2.348,-3.916c0.123,-0.204 0.176,-0.356 0.132,-0.356c-0.055,0.015 -0.195,0.18 -0.32,0.382c-0.596,0.972 -1.136,1.902 -1.68,2.756c-0.134,0.211 -0.271,0.429 -0.408,0.623l-0.206,0.299l-0.102,0.149l-0.097,0.125l-0.191,0.257l-0.097,0.128c-0.033,0.045 -0.035,0.045 -0.055,0.069c-0.061,0.074 -0.12,0.153 -0.185,0.223c-1.405,1.533 -2.672,-1.246 -3.247,-2.184c-0.499,-0.814 -1.029,-1.609 -1.599,-2.377c-0.455,-0.614 -0.945,-1.213 -1.453,-1.786c-1.467,-1.661 -3.278,-3.084 -5.305,-3.996c-0.533,-0.241 -1.111,-0.43 -1.682,-0.562c-1.977,-0.46 -4.078,-0.152 -5.954,0.564c-1.909,0.73 -3.658,1.893 -5.116,3.313c-1.532,1.487 -2.984,3.144 -4.111,4.961c-0.588,0.949 -1.106,1.936 -1.479,2.989c-0.206,0.581 -0.343,1.181 -0.433,1.792c-0.063,0.414 -0.169,0.869 -0.046,1.281c0.038,0.132 0.123,0.276 0.243,0.349c0.055,0.033 0.113,0.041 0.171,0.012c0.057,-0.032 0.087,-0.094 0.143,-0.126c0.051,0.112 0.047,0.378 0.211,0.406c0.207,0.036 0.389,-0.921 0.43,-1.055c0.327,-1.026 0.752,-2.015 1.231,-2.975c0.163,-0.323 0.311,-0.656 0.496,-0.968c0.171,-0.29 0.303,-0.592 0.603,-0.771c-0.211,0.631 -0.506,1.234 -0.738,1.856c-0.246,0.656 -0.522,1.301 -0.744,1.967c-0.225,0.679 -0.372,1.381 -0.537,2.077c-0.03,0.124 -0.049,0.275 -0.057,0.404c-0.003,0.071 -0.003,0.147 0.016,0.215c0.082,0.28 0.289,0.16 0.413,-0.006c0.549,-0.721 0.518,-1.736 1.115,-2.429c-0.364,1.017 0.411,0.274 0.73,0.593c0.165,0.159 -0.024,0.592 0.156,0.777c0.465,0.473 0.943,-0.558 1.131,-0.844c0.344,-0.526 0.722,-1.031 1.119,-1.517c0.942,-1.158 1.992,-2.221 3.037,-3.284c0,0 -0.549,1.26 -0.061,1.26c0.242,-0.005 0.672,-0.349 1.178,-0.853c0.51,-0.504 1.115,-1.137 1.703,-1.736c0.811,-0.766 1.629,-1.263 2.315,-1.461c0.173,-0.053 0.341,-0.09 0.505,-0.108c0.084,-0.021 0.162,-0.012 0.239,-0.017c0.078,-0.001 0.16,-0.023 0.229,-0.004c0.294,-0.005 0.564,0.071 0.887,0.198c0.64,0.237 1.48,0.891 2.345,1.803c0.866,0.923 1.779,2.104 2.787,3.388c2,2.557 4.954,5.801 8.54,5.572c3.51,-0.222 5.843,-3.077 7.487,-5.896c0.594,-1.014 1.106,-1.96 1.609,-2.809c0.504,-0.849 0.997,-1.597 1.512,-2.208c0.707,-0.832 1.651,-1.695 2.748,-1.937c1.002,-0.223 2.053,0.021 2.975,0.428c0.273,0.12 0.541,0.254 0.802,0.399c1.091,0.607 2.081,1.452 2.914,2.551c0.048,0.064 0.074,0.059 0.066,0.013c-0.018,-0.063 -0.075,-0.16 -0.12,-0.215l-0.234,-0.338l-0.256,-0.319c-0.162,-0.219 -0.356,-0.415 -0.534,-0.619c-0.382,-0.388 -0.779,-0.762 -1.21,-1.085c-0.429,-0.32 -0.872,-0.619 -1.332,-0.844c-0.225,-0.13 -0.461,-0.208 -0.686,-0.316c-0.232,-0.068 -0.463,-0.17 -0.689,-0.212c-0.458,-0.125 -0.902,-0.16 -1.324,-0.141c-0.899,0.039 -1.718,0.447 -2.454,0.935c-0.414,0.274 -0.797,0.634 -1.185,1.013c-0.172,0.19 -0.344,0.379 -0.514,0.566c-0.166,0.205 -0.332,0.41 -0.496,0.612c-0.041,0.045 -0.084,0.095 -0.127,0.152c-0.311,0.377 -0.613,0.791 -0.916,1.221c0.099,-0.161 0.199,-0.303 0.299,-0.453c0.101,-0.147 0.183,-0.291 0.235,-0.405c0.054,-0.108 0.076,-0.19 0.054,-0.221c-0.022,-0.018 -0.074,0.005 -0.139,0.058c0.4,-0.633 0.826,-1.245 1.307,-1.818c0.734,-0.869 1.65,-1.621 2.778,-1.886c0.959,-0.226 1.945,-0.202 2.882,0.113c0.244,0.081 0.48,0.172 0.719,0.271c0.242,0.101 0.472,0.235 0.697,0.366c0.324,0.19 0.636,0.399 0.935,0.627c0.61,0.466 1.166,1.002 1.659,1.592c0.122,0.145 0.24,0.298 0.355,0.45c0.964,1.276 1.629,2.771 2.048,4.327c0.044,0.158 0.376,1.451 0.415,1.68c0.02,0.101 0.041,0.154 0.055,0.104c0.019,-0.048 0.015,-0.162 -0.002,-0.252c-0.069,-0.471 -0.346,-1.649 -0.383,-1.789c-0.383,-1.626 -1.054,-3.128 -2.034,-4.375c-0.966,-1.25 -2.216,-2.314 -3.586,-2.999c1.39,0.578 2.725,1.645 3.782,3.014c1.268,1.658 2.063,3.553 2.361,5.757c0.01,0.114 0.037,0.19 0.056,0.177c0.018,-0.018 0.025,-0.114 0.009,-0.227c-0.292,-2.269 -1.143,-4.276 -2.438,-5.88c-0.64,-0.806 -1.41,-1.514 -2.247,-2.12c-0.838,-0.609 -1.768,-1.083 -2.747,-1.364c-0.152,-0.054 -0.309,-0.069 -0.461,-0.111c0.155,0.018 0.315,0.012 0.471,0.044l0.476,0.081c0.315,0.084 0.633,0.163 0.946,0.287c0.626,0.233 1.248,0.542 1.83,0.926c1.646,1.334 2.9,3.137 3.613,5.158c0.715,2.027 0.938,4.227 0.881,6.408c-0.01,0.214 0.01,0.387 0.048,0.385c0.04,0 0.085,-0.181 0.095,-0.395c0.212,-2.476 0.035,-5.042 -0.874,-7.401c0.088,0.152 0.155,0.315 0.233,0.476c0.065,0.163 0.138,0.324 0.19,0.494c0.256,0.772 0.422,1.573 0.547,2.378c0.126,0.807 0.189,1.624 0.205,2.443c0.007,0.612 0.062,1.121 0.177,1.16c0.031,0.004 0.076,-0.07 0.086,-0.093c0.088,-0.165 0.098,-0.385 0.113,-0.565c0.038,-0.417 0.021,-0.837 0.01,-1.256c-0.02,-0.793 -0.103,-1.587 -0.244,-2.375c-0.132,-0.788 -0.339,-1.568 -0.611,-2.325c-0.264,-0.759 -0.612,-1.491 -1.024,-2.183c-0.408,-0.697 -0.891,-1.35 -1.433,-1.944c0.303,0.309 0.586,0.641 0.851,0.99l0.391,0.528l0.354,0.555c0.453,0.753 0.829,1.555 1.126,2.389c0.578,1.672 0.85,3.448 0.868,5.211l0.005,0.296c0.001,0.94 -0.062,1.884 -0.172,2.821c-0.056,0.477 -0.109,0.918 -0.196,1.406c-0.034,0.237 -0.095,0.481 -0.157,0.728c-0.049,0.244 -0.15,0.492 -0.24,0.736c-0.044,0.116 -0.065,0.222 -0.044,0.228c0.018,0.006 0.075,-0.092 0.122,-0.222c0.33,-0.827 0.433,-1.659 0.532,-2.408c0.098,-0.774 0.181,-1.555 0.209,-2.34c0.062,-1.567 -0.028,-3.155 -0.362,-4.701c-0.167,-0.77 -0.385,-1.532 -0.683,-2.265c-0.133,-0.369 -0.314,-0.724 -0.478,-1.081c-0.192,-0.343 -0.368,-0.698 -0.588,-1.024c-0.415,-0.665 -0.902,-1.284 -1.435,-1.844c-0.537,-0.561 -1.113,-1.081 -1.746,-1.519c-0.129,-0.106 -0.271,-0.198 -0.408,-0.294c-0.141,-0.093 -0.274,-0.197 -0.42,-0.28c-0.048,-0.125 -0.199,-0.306 -0.44,-0.514c0.99,0.524 1.877,1.2 2.669,1.971c0.792,0.768 1.486,1.645 2.054,2.603c0.901,1.621 1.445,3.419 1.67,5.224c0.037,0.262 0.092,0.475 0.142,0.478c0.046,0.001 0.059,-0.22 0.022,-0.497c-0.051,-0.448 -0.137,-0.893 -0.223,-1.337c0.131,0.353 0.252,0.582 0.347,0.59c0.091,0.01 0.135,-0.191 0.136,-0.521c0.5,2.003 0.617,4.03 0.584,5.976c-0.004,0.115 0.011,0.177 0.033,0.138c0.022,-0.038 0.044,-0.155 0.047,-0.268c0.086,-1.416 0.047,-2.85 -0.141,-4.277c-0.194,-1.427 -0.558,-2.851 -1.127,-4.211c-0.757,-2.201 -2.064,-4.243 -4.089,-5.878c-0.745,-0.592 -1.563,-1.095 -2.453,-1.475c-0.886,-0.383 -1.855,-0.638 -2.857,-0.688c-1.528,-0.077 -2.89,0.338 -4.246,1.008c-0.414,0.206 -0.778,0.483 -1.152,0.738c-1.087,0.724 -1.992,1.626 -2.75,2.555c0.074,-0.157 0.1,-0.269 0.058,-0.304c-0.009,-0.007 -0.028,-0.006 -0.048,-0.004c0.694,-0.822 1.481,-1.634 2.444,-2.324c0.279,-0.196 0.577,-0.375 0.865,-0.558c0.295,-0.175 0.611,-0.32 0.918,-0.477c0.146,-0.08 0.327,-0.142 0.496,-0.205l0.516,-0.19c0.355,-0.092 0.712,-0.195 1.076,-0.249c1.459,-0.233 2.943,-0.042 4.23,0.424c1.291,0.469 2.428,1.16 3.431,1.966c0.997,0.81 1.87,1.743 2.613,2.787c1.499,2.09 2.349,4.561 2.693,6.974c0.174,1.213 0.238,2.422 0.22,3.614c-0.01,0.596 -0.036,1.191 -0.082,1.778c-0.025,0.292 -0.049,0.596 -0.078,0.873l-0.042,0.423l-0.065,0.485c-0.037,0.312 -0.104,0.657 -0.118,0.875c-0.015,0.22 0,0.345 0.059,0.315c0.059,-0.029 0.15,-0.212 0.246,-0.485c0.042,-0.13 0.104,-0.309 0.129,-0.451c0.033,-0.152 0.064,-0.316 0.087,-0.486c0.343,-2.231 0.45,-4.502 0.145,-6.807" style="fill:#383d45;fill-rule:nonzero;"/><path d="M32.574,14.309c0.439,0.01 0.953,-0.063 1.485,-0.215c0.268,-0.077 0.541,-0.168 0.815,-0.279c0.128,-0.043 0.3,-0.126 0.457,-0.193l0.476,-0.212c1.273,-0.572 2.524,-1.225 3.752,-1.952c0.082,-0.046 0.145,-0.102 0.138,-0.121c-0.007,-0.019 -0.079,0.004 -0.155,0.05c-1.227,0.726 -2.475,1.373 -3.74,1.943l-0.477,0.212l-0.236,0.106l-0.119,0.052l-0.101,0.039c-0.273,0.109 -0.54,0.199 -0.806,0.277c-0.527,0.152 -1.035,0.229 -1.47,0.22c-0.057,-0.002 -0.102,0.012 -0.11,0.032c-0.004,0.02 0.036,0.039 0.091,0.041" style="fill:#383d45;fill-rule:nonzero;"/><path d="M8.719,2.399c-0.214,0.14 -0.427,0.281 -0.623,0.443l0.126,-0.069c-0.772,0.605 -1.44,1.351 -2.008,2.093c-0.857,1.021 -1.553,2.284 -2.047,3.577c0.092,-0.383 0.188,-0.751 0.283,-1.1c0.364,-0.722 0.783,-1.417 1.266,-2.079c0.601,-0.816 1.347,-1.663 2.217,-2.406c0.108,-0.081 0.216,-0.161 0.323,-0.242c0.174,-0.094 0.355,-0.178 0.53,-0.265l-0.067,0.048Zm-1.108,2.277c-0.065,0.091 -0.205,0.256 -0.088,0.2c-0.586,0.683 -1.081,1.419 -1.495,2.23c-0.162,0.296 -0.279,0.605 -0.396,0.898c-0.219,0.287 -0.464,0.6 -0.687,1.028c0.312,-0.738 0.684,-1.594 1.14,-2.332c0.5,-0.824 1.059,-1.58 1.74,-2.291c-0.078,0.085 -0.144,0.176 -0.214,0.267m-3.737,9.198c-0.058,0.348 -0.119,0.697 -0.179,1.045c-0.037,0.201 -0.078,0.386 -0.052,0.589c0.028,0.23 0.147,0.634 0.44,0.397c0.503,-0.406 0.489,-1.154 0.629,-1.728c0.041,-0.163 0.078,-0.39 0.201,-0.51c-0.062,0.061 -0.025,0.222 -0.006,0.294c0.029,0.113 0.127,0.216 0.245,0.232c0.154,0.02 0.262,-0.122 0.369,-0.201c0.135,-0.102 0.279,-0.078 0.347,0.082c0.044,0.104 0.043,0.236 0.117,0.331c0.087,0.106 0.267,0.184 0.403,0.173c0.18,-0.017 0.335,-0.138 0.461,-0.257c0.328,-0.313 0.562,-0.72 0.789,-1.109c0.057,-0.098 0.113,-0.199 0.172,-0.295c0.722,-1.18 1.338,-2.406 1.972,-3.631c-0.035,0.237 -0.061,0.5 -0.002,0.734c0.047,0.186 0.14,0.281 0.279,0.272c0.452,-0.05 1.223,-1.214 1.922,-2.08c0.962,-1.096 2.228,-1.589 3.587,-1.441l0.13,0.01l0.129,0.026l0.261,0.047c0.174,0.057 0.353,0.079 0.529,0.158l0.274,0.097l0.325,0.149l0.329,0.145c0.107,0.055 0.204,0.115 0.309,0.168c0.825,0.445 1.555,0.992 2.274,1.716c0.528,0.54 1.033,1.158 1.532,1.849c0.498,0.699 0.995,1.465 1.508,2.274c0.514,0.809 1.062,1.676 1.655,2.55c0.152,0.221 0.303,0.443 0.456,0.663l0.339,0.446c0.119,0.15 0.226,0.301 0.367,0.446c0.27,0.294 0.537,0.584 0.861,0.852c0.304,0.277 0.657,0.521 1.012,0.761c1.417,0.85 3.089,1.218 4.514,1.162c0.731,-0.005 1.395,-0.122 2.039,-0.257c0.627,-0.155 1.229,-0.341 1.784,-0.569l0.414,-0.17l0.398,-0.188c0.281,-0.127 0.49,-0.244 0.711,-0.364c0.437,-0.241 0.886,-0.469 1.31,-0.727c0.424,-0.255 0.852,-0.506 1.27,-0.769c0.411,-0.269 0.823,-0.537 1.236,-0.807c2.713,-1.873 4.452,-3.669 6.485,-5.601c0.059,-0.055 0.051,-0.079 0.007,-0.066c-0.062,0.023 -0.154,0.089 -0.206,0.143c-0.418,0.421 -0.93,0.78 -1.391,1.156c-0.475,0.391 -0.957,0.773 -1.442,1.152c-0.949,0.735 -1.919,1.443 -2.912,2.115c-1.568,1.062 -3.158,2.129 -4.913,2.864c-0.496,0.21 -1.005,0.39 -1.523,0.536c-0.569,0.158 -1.149,0.277 -1.728,0.393c0.426,-0.394 1.083,-0.5 1.612,-0.693c1.391,-0.506 2.744,-1.215 4.013,-1.976c1.501,-0.898 3.018,-1.778 4.415,-2.838c1.273,-0.967 2.469,-2.031 3.681,-3.072c0.353,-0.304 0.707,-0.606 1.063,-0.907c0.742,-0.627 2.929,-2.328 3.162,-2.698c-0.514,0.268 -0.953,0.696 -1.385,1.076c-0.479,0.422 -0.971,0.829 -1.465,1.231c-0.984,0.803 -1.964,1.613 -2.968,2.391c-0.956,0.743 -1.973,1.402 -2.924,2.15c1.26,-0.965 2.48,-1.986 3.742,-2.947c1.537,-1.258 2.883,-2.485 4.424,-3.731c0.081,-0.064 0.123,-0.119 0.105,-0.13c-0.022,-0.006 -0.1,0.031 -0.18,0.097c-3.18,2.516 -5.731,5.101 -9.392,7.358c-0.146,0.086 -0.291,0.172 -0.436,0.257c1.058,-0.817 9.129,-7.261 12.084,-9.632c0.149,-0.111 0.25,-0.226 0.223,-0.255c-0.026,-0.027 -0.171,0.04 -0.32,0.151c-1.763,1.232 -3.514,2.514 -5.28,3.778l0.334,-0.314l0.352,-0.288c1.105,-0.85 2.213,-1.702 3.324,-2.554c0.42,-0.312 0.717,-0.639 0.675,-0.744c-0.059,-0.092 -0.424,0.07 -0.831,0.366c0,0 -4.844,3.63 -6.996,5.185c2.255,-1.758 9.541,-7.431 10.865,-8.318c0.077,-0.052 0.133,-0.112 0.119,-0.128c-0.014,-0.016 -0.094,0.019 -0.177,0.078c-4.386,2.96 -8.276,6.396 -12.313,9.427c-0.145,0.108 -0.299,0.204 -0.449,0.305c-0.172,0.118 -0.342,0.251 -0.54,0.323c-0.082,0.029 -0.224,0.04 -0.309,0.029c0.017,-0.055 0.089,-0.09 0.133,-0.121c0.063,-0.043 0.124,-0.089 0.188,-0.131c0.381,-0.243 0.733,-0.525 1.1,-0.788c0.48,-0.345 0.957,-0.694 1.43,-1.05c0.068,-0.052 0.136,-0.103 0.205,-0.154c0.034,-0.027 0.067,-0.052 0.1,-0.076c0.019,-0.015 0.072,-0.071 0.093,-0.071c1.119,-0.849 2.248,-1.685 3.373,-2.527c0.32,-0.24 1.658,-1.301 1.562,-1.395c-0.092,-0.092 -1.02,0.775 -1.211,0.923c0.073,-0.086 0.333,-0.339 0.288,-0.471c-0.057,-0.163 -0.336,-0.027 -0.447,0.014c0.619,-0.565 1.286,-1.085 1.921,-1.63c0.319,-0.27 0.633,-0.54 0.949,-0.81c0.244,-0.208 0.727,-0.489 0.86,-0.773c-0.262,0.096 -0.471,0.322 -0.688,0.488c-0.252,0.195 -0.501,0.392 -0.752,0.59c-0.502,0.391 -0.996,0.791 -1.492,1.191c-0.977,0.786 -1.953,1.574 -2.933,2.355c-1.717,1.367 -3.562,2.564 -5.412,3.742c-0.607,0.386 -1.213,0.77 -1.821,1.158c-0.701,0.45 -1.41,0.891 -2.137,1.303c-0.602,0.339 -1.216,0.657 -1.853,0.927c-0.498,0.212 -1.009,0.343 -1.523,0.497c0.259,-0.088 0.554,-0.211 0.775,-0.38c-0.193,-0.053 -0.417,0.014 -0.614,-0.014c1.319,-0.287 2.541,-1.027 3.689,-1.703c1.554,-0.914 3.066,-1.896 4.526,-2.952c0.818,-0.592 1.625,-1.199 2.436,-1.803c1.217,-0.942 2.4,-1.922 3.596,-2.893c0.347,-0.281 0.698,-0.563 1.049,-0.841c0.867,-0.686 1.734,-1.374 2.584,-2.082c0.352,-0.292 0.701,-0.587 1.041,-0.894c0.189,-0.171 0.459,-0.361 0.592,-0.582c0.064,-0.104 0.12,-0.13 -0.003,-0.14c-0.164,-0.013 -0.476,0.255 -0.603,0.335c-0.813,0.518 -1.586,1.102 -2.347,1.69c-1.577,1.216 -3.069,2.531 -4.602,3.801c-1.466,1.213 -2.993,2.352 -4.528,3.481c-0.744,0.547 -1.504,1.073 -2.283,1.566c-1.225,0.773 -2.437,1.458 -3.683,2.027l-0.465,0.218c-0.149,0.067 -0.279,0.117 -0.42,0.176c-0.275,0.108 -0.551,0.205 -0.822,0.278c-0.546,0.153 -1.081,0.229 -1.564,0.22c-0.099,-0.002 -0.186,-0.019 -0.276,-0.033c-0.092,-0.011 -0.184,-0.02 -0.266,-0.037c-0.179,-0.02 -0.34,-0.067 -0.499,-0.112c-0.306,-0.107 -0.563,-0.287 -0.813,-0.507c-0.127,-0.101 -0.235,-0.247 -0.356,-0.374l-0.16,-0.23c-0.029,-0.041 -0.053,-0.067 -0.086,-0.119l-0.107,-0.168c-0.576,-0.892 -1.104,-1.843 -1.653,-2.835c0.358,0.572 0.711,1.135 1.067,1.669c0.177,0.268 0.353,0.537 0.539,0.787l0.271,0.385c0.049,0.073 0.082,0.109 0.115,0.146l0.102,0.122c0.558,0.62 1.096,0.849 1.818,0.873c0.108,0.002 0.179,-0.027 0.17,-0.066c-0.015,-0.041 -0.103,-0.078 -0.206,-0.078c-0.227,-0.035 -0.448,-0.06 -0.632,-0.144c-0.052,-0.014 -0.097,-0.035 -0.142,-0.062c-0.044,-0.022 -0.092,-0.043 -0.139,-0.065c-0.082,-0.07 -0.183,-0.1 -0.264,-0.184c-0.044,-0.036 -0.088,-0.073 -0.134,-0.106l-0.128,-0.134c-0.092,-0.075 -0.169,-0.195 -0.256,-0.297c-0.025,-0.03 -0.04,-0.042 -0.071,-0.087l-0.09,-0.134l-0.182,-0.265c-0.122,-0.177 -0.244,-0.352 -0.362,-0.539c-1.167,-1.843 -2.251,-3.731 -3.364,-5.606c-0.315,-0.526 -0.647,-1.044 -1.024,-1.529c-0.818,-1.062 -1.84,-2.023 -2.941,-2.781c-0.636,-0.434 -1.325,-0.824 -2.022,-1.148c-1.926,-0.898 -4.048,-1.275 -6.166,-1.112c-1.824,0.141 -3.66,0.668 -5.24,1.605c-2.139,1.267 -3.736,3.025 -4.931,5.197c-0.313,0.568 -0.595,1.154 -0.848,1.751c-0.506,1.202 -0.834,2.455 -1.129,3.719c-0.08,0.344 -0.166,0.689 -0.211,1.039c-0.089,0.726 -0.107,1.389 -0.043,1.823c0.127,0.876 0.529,0.659 0.902,-0.556c0.02,-0.06 0.038,-0.12 0.059,-0.179c-0.047,0.135 -0.047,0.616 0.051,0.732c0.301,0.349 0.524,-0.629 0.575,-0.794c0.24,-0.782 0.507,-1.554 0.728,-2.342c0.152,-0.542 0.642,-1.885 0.642,-1.885c0,0 -0.643,2.545 -0.85,3.727" style="fill:#383d45;fill-rule:nonzero;"/><path d="M71.261,29.19l-0.728,-2.406l-0.735,2.406l1.463,0Zm1.012,1.469c0.038,0.156 -0.075,0.343 -0.262,0.343c-0.127,0 -0.211,-0.068 -0.248,-0.195l-0.338,-1.088l-1.784,0l-0.337,1.088c-0.038,0.112 -0.143,0.195 -0.256,0.195c-0.156,0 -0.314,-0.165 -0.255,-0.343l1.478,-4.867c0.037,-0.112 0.142,-0.187 0.262,-0.187c0.113,0 0.218,0.075 0.255,0.187l1.485,4.867Z" style="fill:#383d45;fill-rule:nonzero;"/><path d="M77.204,27.954l0.953,0c0.486,0 0.892,-0.403 0.892,-0.88c0,-0.492 -0.406,-0.887 -0.892,-0.887l-0.953,0l0,1.767Zm-0.532,2.78l0,-4.815c0,-0.15 0.12,-0.268 0.262,-0.268l1.223,0c0.787,0 1.424,0.641 1.424,1.423c0,0.776 -0.637,1.416 -1.424,1.416l-0.953,0l0,2.244c0,0.149 -0.12,0.268 -0.27,0.268c-0.142,0 -0.262,-0.119 -0.262,-0.268" style="fill:#383d45;fill-rule:nonzero;"/><path d="M85.795,29.19l-0.728,-2.406l-0.734,2.406l1.462,0Zm1.013,1.469c0.037,0.156 -0.076,0.343 -0.263,0.343c-0.128,0 -0.21,-0.068 -0.247,-0.195l-0.338,-1.088l-1.785,0l-0.338,1.088c-0.037,0.112 -0.143,0.195 -0.254,0.195c-0.158,0 -0.315,-0.165 -0.256,-0.343l1.479,-4.867c0.037,-0.112 0.142,-0.187 0.261,-0.187c0.114,0 0.217,0.075 0.255,0.187l1.486,4.867Z" style="fill:#383d45;fill-rule:nonzero;"/><path d="M92.751,27.886c0.48,0 0.862,-0.38 0.862,-0.851c0,-0.476 -0.382,-0.856 -0.862,-0.856l-1.012,0l0,1.707l1.012,0Zm1.387,2.766c0.038,0.155 -0.059,0.349 -0.246,0.349c-0.114,0 -0.211,-0.067 -0.264,-0.178l-0.787,-2.408l-1.102,0l0,2.325c0,0.142 -0.121,0.261 -0.27,0.261c-0.143,0 -0.263,-0.119 -0.263,-0.261l0,-4.829c0,-0.142 0.12,-0.26 0.263,-0.26l1.282,0c0.772,0 1.395,0.618 1.395,1.384c0,0.545 -0.315,1.015 -0.788,1.247l0.78,2.37Z" style="fill:#383d45;fill-rule:nonzero;"/><path d="M101.013,25.651c0.15,0 0.27,0.118 0.27,0.261c0,0.148 -0.12,0.267 -0.27,0.267l-1.021,0l0,4.555c0,0.148 -0.12,0.268 -0.27,0.268c-0.143,0 -0.262,-0.12 -0.262,-0.268l0,-4.555l-1.019,0c-0.151,0 -0.272,-0.119 -0.272,-0.267c0,-0.143 0.121,-0.261 0.272,-0.261l2.572,0Z" style="fill:#383d45;fill-rule:nonzero;"/><path d="M109.056,30.734l0,-3.734l-1.23,2.444c-0.045,0.097 -0.127,0.149 -0.241,0.149c-0.105,0 -0.187,-0.052 -0.24,-0.149l-1.223,-2.444l0,3.734c0,0.148 -0.119,0.268 -0.269,0.268c-0.143,0 -0.262,-0.12 -0.262,-0.268l0,-4.86c0.008,-0.149 0.119,-0.269 0.262,-0.269c0.113,0 0.187,0.053 0.24,0.15l1.492,2.981l1.5,-2.981c0.053,-0.097 0.127,-0.15 0.241,-0.15c0.156,0 0.261,0.143 0.261,0.269l0,4.86c0,0.148 -0.119,0.268 -0.261,0.268c-0.151,0 -0.27,-0.12 -0.27,-0.268" style="fill:#383d45;fill-rule:nonzero;"/><path d="M116.845,30.42c0.15,0 0.27,0.118 0.27,0.268c0,0.149 -0.12,0.268 -0.27,0.268l-2.16,0c-0.143,0 -0.262,-0.119 -0.262,-0.268l0,-4.777c0,-0.142 0.119,-0.261 0.262,-0.261l2.137,0c0.15,0 0.271,0.119 0.271,0.261c0,0.149 -0.121,0.268 -0.271,0.268l-1.868,0l0,1.655l1.651,0c0.15,0 0.269,0.119 0.269,0.269c0,0.14 -0.119,0.26 -0.269,0.26l-1.651,0l0,2.057l1.891,0Z" style="fill:#383d45;fill-rule:nonzero;"/><path d="M124.032,30.852l-1.965,-3.867l0,3.749c0,0.148 -0.119,0.267 -0.269,0.267c-0.143,0 -0.262,-0.119 -0.262,-0.267l0,-4.861c0,-0.148 0.119,-0.268 0.262,-0.268c0.113,0 0.187,0.053 0.24,0.149l1.965,3.869l0,-3.75c0,-0.148 0.119,-0.268 0.269,-0.268c0.151,0 0.27,0.12 0.27,0.268l0,4.861c0,0.126 -0.09,0.23 -0.209,0.261c-0.016,0.006 -0.037,0.006 -0.061,0.006c-0.097,0 -0.187,-0.052 -0.24,-0.149" style="fill:#383d45;fill-rule:nonzero;"/><path d="M131.694,25.651c0.15,0 0.27,0.118 0.27,0.261c0,0.148 -0.12,0.267 -0.27,0.267l-1.02,0l0,4.555c0,0.148 -0.121,0.268 -0.269,0.268c-0.145,0 -0.264,-0.12 -0.264,-0.268l0,-4.555l-1.019,0c-0.151,0 -0.27,-0.119 -0.27,-0.267c0,-0.143 0.119,-0.261 0.27,-0.261l2.572,0Z" style="fill:#383d45;fill-rule:nonzero;"/><path d="M135.972,29.674c0,-0.148 0.121,-0.268 0.264,-0.268c0.15,0 0.269,0.12 0.269,0.268c0,0.388 0.322,0.798 0.93,0.798c0.578,0 0.945,-0.306 0.945,-0.782c0,-0.358 -0.045,-0.633 -0.615,-0.999c-0.682,-0.395 -0.84,-0.492 -0.998,-0.588c-0.457,-0.322 -0.748,-0.679 -0.748,-1.223c0,-0.806 0.652,-1.275 1.402,-1.275c0.787,0 1.424,0.574 1.424,1.327c0,0.149 -0.119,0.267 -0.269,0.267c-0.151,0 -0.27,-0.118 -0.27,-0.267c0,-0.388 -0.309,-0.798 -0.885,-0.798c-0.601,0 -0.863,0.373 -0.863,0.737c0,0.18 0,0.434 0.473,0.769c0.111,0.082 0.404,0.261 0.998,0.596c0.576,0.328 0.89,0.804 0.89,1.454c0,0.841 -0.726,1.311 -1.484,1.311c-0.914,0 -1.463,-0.671 -1.463,-1.327" style="fill:#383d45;fill-rule:nonzero;"/><path d="M69.415,40.163c0,0.522 0.436,0.954 0.961,0.954c0.292,0 0.473,-0.111 0.652,-0.297l0.18,-0.21l-1.32,-1.46c-0.292,0.171 -0.473,0.454 -0.473,0.805l0,0.208Zm3.053,1.036c0.142,0.164 0.052,0.447 -0.196,0.447c-0.074,0 -0.142,-0.029 -0.195,-0.082l-0.502,-0.558c-0.053,0.059 -0.097,0.119 -0.217,0.239c-0.232,0.23 -0.533,0.401 -0.982,0.401c-0.825,0 -1.493,-0.663 -1.493,-1.483l0,-0.208c0,-0.5 0.24,-0.932 0.637,-1.2c-0.261,-0.276 -0.637,-0.7 -0.637,-1.223c0,-0.708 0.578,-1.281 1.29,-1.281c0.721,0 1.32,0.581 1.32,1.304c0,0.149 -0.12,0.268 -0.269,0.268c-0.151,0 -0.264,-0.119 -0.264,-0.268c0,-0.425 -0.352,-0.775 -0.787,-0.775c-0.412,0 -0.758,0.342 -0.758,0.752c0,0.314 0.293,0.634 0.503,0.865l1.62,1.782l0.481,-0.626c0.051,-0.068 0.126,-0.105 0.209,-0.105c0.209,0 0.353,0.254 0.209,0.433l-0.532,0.693l0.563,0.625Z" style="fill:#383d45;fill-rule:nonzero;"/><path d="M82.438,41.453l-1.35,-4.86c-0.052,-0.17 0.082,-0.342 0.255,-0.342c0.12,0 0.226,0.082 0.255,0.201l1.103,3.936l1.094,-3.936c0.031,-0.119 0.135,-0.201 0.256,-0.201c0.18,0 0.315,0.186 0.262,0.342l-1.357,4.86c-0.03,0.111 -0.135,0.193 -0.255,0.193c-0.12,0 -0.226,-0.082 -0.263,-0.193" style="fill:#383d45;fill-rule:nonzero;"/><path d="M90.714,41.065c0.15,0 0.271,0.119 0.271,0.268c0,0.149 -0.121,0.269 -0.271,0.269l-1.875,0c-0.148,0 -0.27,-0.12 -0.27,-0.269c0,-0.149 0.122,-0.268 0.27,-0.268l0.676,0l0,-4.233l-0.676,0c-0.148,0 -0.27,-0.12 -0.27,-0.269c0,-0.149 0.122,-0.268 0.27,-0.268l1.875,0c0.15,0 0.271,0.119 0.271,0.268c0,0.149 -0.121,0.269 -0.271,0.269l-0.666,0l0,4.233l0.666,0Z" style="fill:#383d45;fill-rule:nonzero;"/><path d="M98.059,41.02c0.15,0 0.27,0.119 0.27,0.269c0,0.149 -0.12,0.268 -0.27,0.268l-2.182,0c-0.15,0 -0.269,-0.119 -0.269,-0.268l0,-4.77c0,-0.149 0.119,-0.269 0.269,-0.269c0.149,0 0.262,0.12 0.262,0.269l0,4.501l1.92,0Z" style="fill:#383d45;fill-rule:nonzero;"/><path d="M105.204,41.02c0.148,0 0.27,0.119 0.27,0.269c0,0.149 -0.122,0.268 -0.27,0.268l-2.184,0c-0.15,0 -0.269,-0.119 -0.269,-0.268l0,-4.77c0,-0.149 0.119,-0.269 0.269,-0.269c0.151,0 0.264,0.12 0.264,0.269l0,4.501l1.92,0Z" style="fill:#383d45;fill-rule:nonzero;"/><path d="M111.934,39.834l-0.727,-2.406l-0.736,2.406l1.463,0Zm1.012,1.469c0.037,0.157 -0.075,0.343 -0.262,0.343c-0.127,0 -0.211,-0.068 -0.248,-0.194l-0.338,-1.089l-1.785,0l-0.336,1.089c-0.037,0.111 -0.143,0.194 -0.256,0.194c-0.156,0 -0.314,-0.165 -0.254,-0.343l1.477,-4.866c0.037,-0.113 0.142,-0.187 0.263,-0.187c0.112,0 0.217,0.074 0.254,0.187l1.485,4.866Z" style="fill:#383d45;fill-rule:nonzero;"/></svg>